<svg width="428" height="120" viewBox="0 0 428 120" fill="none" xmlns="http://www.w3.org/2000/svg">
<g clip-path="url(#clip0_303_121)">
<path d="M21.5 5.25H112L81.5 55.25L65 29.25H34.5L21.5 5.25Z" fill="#90C8E9"/>
<path d="M8.5 37.25H32H57.5V43.75L47.5 65.25L61 91.75L46 114.75L0 37.25H8.5Z" fill="#006DC6"/>
<path d="M104.5 37.25H130.5V42.25L86 114.25L56.5 66.25H84.5L104.5 37.25Z" fill="#003569"/>
<path d="M195.313 20C195.229 18.9583 194.839 18.1458 194.141 17.5625C193.453 16.9792 192.406 16.6875 191 16.6875C190.104 16.6875 189.37 16.7969 188.797 17.0156C188.234 17.224 187.818 17.5104 187.547 17.875C187.276 18.2396 187.135 18.6562 187.125 19.125C187.104 19.5104 187.172 19.8594 187.328 20.1719C187.495 20.474 187.755 20.75 188.109 21C188.464 21.2396 188.917 21.4583 189.469 21.6562C190.021 21.8542 190.677 22.0312 191.438 22.1875L194.063 22.75C195.833 23.125 197.349 23.6198 198.609 24.2344C199.87 24.849 200.901 25.5729 201.703 26.4063C202.505 27.2292 203.094 28.1562 203.469 29.1875C203.854 30.2187 204.052 31.3437 204.063 32.5625C204.052 34.6667 203.526 36.4479 202.484 37.9062C201.443 39.3646 199.953 40.474 198.016 41.2344C196.089 41.9948 193.771 42.375 191.063 42.375C188.281 42.375 185.854 41.9635 183.781 41.1406C181.719 40.3177 180.115 39.0521 178.969 37.3437C177.833 35.625 177.26 33.4271 177.25 30.75H185.5C185.552 31.7292 185.797 32.5521 186.234 33.2187C186.672 33.8854 187.286 34.3906 188.078 34.7344C188.88 35.0781 189.833 35.25 190.938 35.25C191.865 35.25 192.641 35.1354 193.266 34.9062C193.891 34.6771 194.365 34.3594 194.688 33.9531C195.01 33.5469 195.177 33.0833 195.188 32.5625C195.177 32.0729 195.016 31.6458 194.703 31.2812C194.401 30.9062 193.901 30.5729 193.203 30.2812C192.505 29.9792 191.563 29.6979 190.375 29.4375L187.188 28.75C184.354 28.1354 182.12 27.1094 180.484 25.6719C178.859 24.224 178.052 22.25 178.062 19.75C178.052 17.7187 178.594 15.9427 179.688 14.4219C180.792 12.8906 182.318 11.6979 184.266 10.8437C186.224 9.98958 188.469 9.5625 191 9.5625C193.583 9.5625 195.818 9.99479 197.703 10.8594C199.589 11.724 201.042 12.9427 202.063 14.5156C203.094 16.0781 203.615 17.9062 203.625 20H195.313ZM206.055 10H215.742L221.992 23H222.242L228.492 10H238.18L226.43 31.9375V42H217.805V31.9375L206.055 10ZM268.699 10V42H261.449L249.887 25.1875H249.699V42H241.012V10H248.387L259.762 26.75H260.012V10H268.699ZM272.809 42V10H295.871V17H281.496V22.5H294.684V29.5H281.496V35H295.809V42H272.809ZM300.18 42V10H313.992C316.367 10 318.445 10.4323 320.227 11.2969C322.008 12.1615 323.393 13.4062 324.383 15.0313C325.372 16.6562 325.867 18.6042 325.867 20.875C325.867 23.1667 325.357 25.099 324.336 26.6719C323.326 28.2448 321.904 29.4323 320.07 30.2344C318.247 31.0365 316.117 31.4375 313.68 31.4375H305.43V24.6875H311.93C312.951 24.6875 313.82 24.5625 314.539 24.3125C315.268 24.0521 315.826 23.6406 316.211 23.0781C316.607 22.5156 316.805 21.7812 316.805 20.875C316.805 19.9583 316.607 19.2135 316.211 18.6406C315.826 18.0573 315.268 17.6302 314.539 17.3594C313.82 17.0781 312.951 16.9375 311.93 16.9375H308.867V42H300.18ZM318.93 27.3125L326.93 42H317.492L309.68 27.3125H318.93ZM350.352 20.5625C350.216 20.0104 350.003 19.526 349.711 19.1094C349.419 18.6823 349.055 18.3229 348.617 18.0313C348.19 17.7292 347.69 17.5052 347.117 17.3594C346.555 17.2031 345.935 17.125 345.258 17.125C343.799 17.125 342.555 17.474 341.523 18.1719C340.503 18.8698 339.721 19.875 339.18 21.1875C338.648 22.5 338.383 24.0833 338.383 25.9375C338.383 27.8125 338.638 29.4167 339.148 30.75C339.659 32.0833 340.419 33.1042 341.43 33.8125C342.44 34.5208 343.695 34.875 345.195 34.875C346.518 34.875 347.617 34.6823 348.492 34.2969C349.378 33.9115 350.039 33.3646 350.477 32.6562C350.914 31.9479 351.133 31.1146 351.133 30.1562L352.633 30.3125H345.32V24.125H359.508V28.5625C359.508 31.4792 358.888 33.974 357.648 36.0469C356.419 38.1094 354.721 39.6927 352.555 40.7969C350.398 41.8906 347.924 42.4375 345.133 42.4375C342.018 42.4375 339.284 41.776 336.93 40.4531C334.576 39.1302 332.737 37.2448 331.414 34.7969C330.102 32.349 329.445 29.4375 329.445 26.0625C329.445 23.4167 329.846 21.0729 330.648 19.0312C331.461 16.9896 332.586 15.2656 334.023 13.8594C335.461 12.4427 337.122 11.375 339.008 10.6562C340.893 9.92708 342.914 9.5625 345.07 9.5625C346.966 9.5625 348.727 9.83333 350.352 10.375C351.987 10.9062 353.43 11.6667 354.68 12.6562C355.94 13.6354 356.956 14.7969 357.727 16.1406C358.497 17.4844 358.966 18.9583 359.133 20.5625H350.352ZM360.742 10H370.43L376.68 23H376.93L383.18 10H392.867L381.117 31.9375V42H372.492V31.9375L360.742 10ZM412.949 20C412.866 18.9583 412.475 18.1458 411.777 17.5625C411.09 16.9792 410.043 16.6875 408.637 16.6875C407.741 16.6875 407.007 16.7969 406.434 17.0156C405.871 17.224 405.454 17.5104 405.184 17.875C404.913 18.2396 404.772 18.6562 404.762 19.125C404.741 19.5104 404.809 19.8594 404.965 20.1719C405.132 20.474 405.392 20.75 405.746 21C406.1 21.2396 406.553 21.4583 407.105 21.6562C407.658 21.8542 408.314 22.0312 409.074 22.1875L411.699 22.75C413.47 23.125 414.986 23.6198 416.246 24.2344C417.507 24.849 418.538 25.5729 419.34 26.4063C420.142 27.2292 420.73 28.1562 421.105 29.1875C421.491 30.2187 421.689 31.3437 421.699 32.5625C421.689 34.6667 421.163 36.4479 420.121 37.9062C419.079 39.3646 417.59 40.474 415.652 41.2344C413.725 41.9948 411.408 42.375 408.699 42.375C405.918 42.375 403.491 41.9635 401.418 41.1406C399.355 40.3177 397.751 39.0521 396.605 37.3437C395.47 35.625 394.897 33.4271 394.887 30.75H403.137C403.189 31.7292 403.434 32.5521 403.871 33.2187C404.309 33.8854 404.923 34.3906 405.715 34.7344C406.517 35.0781 407.47 35.25 408.574 35.25C409.501 35.25 410.277 35.1354 410.902 34.9062C411.527 34.6771 412.001 34.3594 412.324 33.9531C412.647 33.5469 412.814 33.0833 412.824 32.5625C412.814 32.0729 412.652 31.6458 412.34 31.2812C412.038 30.9062 411.538 30.5729 410.84 30.2812C410.142 29.9792 409.199 29.6979 408.012 29.4375L404.824 28.75C401.991 28.1354 399.757 27.1094 398.121 25.6719C396.496 24.224 395.689 22.25 395.699 19.75C395.689 17.7187 396.23 15.9427 397.324 14.4219C398.428 12.8906 399.954 11.6979 401.902 10.8437C403.861 9.98958 406.105 9.5625 408.637 9.5625C411.22 9.5625 413.454 9.99479 415.34 10.8594C417.225 11.724 418.678 12.9427 419.699 14.5156C420.73 16.0781 421.251 17.9062 421.262 20H412.949Z" fill="white"/>
<path d="M179.468 106V60.1818H198.395C201.825 60.1818 204.786 60.853 207.276 62.1953C209.782 63.5227 211.713 65.3796 213.071 67.766C214.428 70.1374 215.107 72.8967 215.107 76.0437C215.107 79.2056 214.413 81.9723 213.026 84.3438C211.654 86.7003 209.692 88.5273 207.142 89.8249C204.592 91.1225 201.564 91.7713 198.059 91.7713H186.381V83.0462H196.001C197.671 83.0462 199.066 82.7553 200.184 82.1737C201.318 81.592 202.175 80.7791 202.757 79.7351C203.339 78.6761 203.63 77.4457 203.63 76.0437C203.63 74.6268 203.339 73.4038 202.757 72.3746C202.175 71.3306 201.318 70.5252 200.184 69.9585C199.051 69.3917 197.656 69.1083 196.001 69.1083H190.542V106H179.468ZM221.195 106V60.1818H240.122C243.553 60.1818 246.513 60.8008 249.004 62.0387C251.51 63.2617 253.441 65.0217 254.798 67.3185C256.156 69.6005 256.834 72.3075 256.834 75.4396C256.834 78.6165 256.141 81.3161 254.754 83.5384C253.367 85.7457 251.398 87.4311 248.847 88.5945C246.297 89.7429 243.277 90.3171 239.787 90.3171H227.818V81.592H237.728C239.399 81.592 240.793 81.3757 241.912 80.9432C243.045 80.4957 243.903 79.8246 244.485 78.9297C245.066 78.0199 245.357 76.8565 245.357 75.4396C245.357 74.0227 245.066 72.8519 244.485 71.9272C243.903 70.9876 243.045 70.2866 241.912 69.8242C240.778 69.3469 239.384 69.1083 237.728 69.1083H232.27V106H221.195ZM246.99 85.0597L258.4 106H246.319L235.133 85.0597H246.99ZM274.612 60.1818V106H263.538V60.1818H274.612ZM282.195 60.1818H295.909L307.542 88.5497H308.079L319.713 60.1818H333.427V106H322.643V77.8558H322.263L311.256 105.709H304.365L293.358 77.6992H292.978V106H282.195V60.1818ZM340.964 106V60.1818H372.912V69.1754H352.038V78.5717H371.279V87.5877H352.038V97.0064H372.912V106H340.964ZM391.686 60.1818L400.053 74.6566H400.411L408.867 60.1818H421.262L407.436 83.0909L421.709 106H409.002L400.411 91.3686H400.053L391.462 106H378.844L393.05 83.0909L379.202 60.1818H391.686Z" fill="white"/>
</g>
<defs>
<clipPath id="clip0_303_121">
<rect width="428" height="120" fill="white"/>
</clipPath>
</defs>
</svg>
